<?xml version="1.0" encoding="UTF-8" standalone="no"?>
<!-- Created with Inkscape (http://www.inkscape.org/) -->

<svg
   xmlns:dc="http://purl.org/dc/elements/1.1/"
   xmlns:cc="http://creativecommons.org/ns#"
   xmlns:rdf="http://www.w3.org/1999/02/22-rdf-syntax-ns#"
   xmlns:svg="http://www.w3.org/2000/svg"
   xmlns="http://www.w3.org/2000/svg"
   xmlns:sodipodi="http://sodipodi.sourceforge.net/DTD/sodipodi-0.dtd"
   xmlns:inkscape="http://www.inkscape.org/namespaces/inkscape"
   id="svg2"
   version="1.1"
   inkscape:version="0.48.5 r10040"
   width="220"
   height="193.75"
   xml:space="preserve"
   sodipodi:docname="under_construction.EPS"><metadata
     id="metadata8"><rdf:RDF><cc:Work
         rdf:about=""><dc:format>image/svg+xml</dc:format><dc:type
           rdf:resource="http://purl.org/dc/dcmitype/StillImage" /><dc:title></dc:title></cc:Work></rdf:RDF></metadata><defs
     id="defs6" /><sodipodi:namedview
     pagecolor="#ffffff"
     bordercolor="#666666"
     borderopacity="1"
     objecttolerance="10"
     gridtolerance="10"
     guidetolerance="10"
     inkscape:pageopacity="0"
     inkscape:pageshadow="2"
     inkscape:window-width="640"
     inkscape:window-height="480"
     id="namedview4"
     showgrid="false"
     inkscape:zoom="1.2180645"
     inkscape:cx="110"
     inkscape:cy="96.875"
     inkscape:window-x="0"
     inkscape:window-y="26"
     inkscape:window-maximized="0"
     inkscape:current-layer="g10" /><g
     id="g10"
     inkscape:groupmode="layer"
     inkscape:label="ink_ext_XXXXXX"
     transform="matrix(1.25,0,0,-1.25,0,193.75)"><g
       id="g12"
       transform="scale(0.1,0.1)"><path
         d="m 1685.57,8.75 c 66.19,0 93.27,46.8984 60.17,104.219 L 942.668,1503.93 c -33.09,57.32 -87.246,57.32 -120.34,0 L 19.2578,112.969 C -13.8398,55.6484 13.2383,8.75 79.4258,8.75 l 1606.1442,0"
         style="fill:#e22526;fill-opacity:1;fill-rule:nonzero;stroke:none"
         id="path14" /><path
         d="m 304.934,206.195 1155.126,0 L 882.5,1206.57 304.934,206.195"
         style="fill:#ffffff;fill-opacity:1;fill-rule:nonzero;stroke:none"
         id="path16" /><path
         d="m 851.227,235.457 448.513,0 c 0,0 -133.25,178.043 -156.01,204.043 -22.74,26 -56.87,68.25 -81.25,68.25 -24.37,0 -48.75,-47.125 -58.5,-73.125 -9.75,-26.004 -35.75,-68.254 -58.5,-68.254 -22.753,0 -37.378,-21.125 -37.378,-21.125 L 851.227,235.457"
         style="fill:#231f20;fill-opacity:1;fill-rule:nonzero;stroke:none"
         id="path18" /><path
         d="m 899.344,828.969 c -27.645,7.285 -55.965,-9.219 -63.25,-36.864 -7.285,-27.644 9.218,-55.96 36.859,-63.25 27.649,-7.289 55.965,9.215 63.254,36.864 7.285,27.64 -9.219,55.961 -36.863,63.25"
         style="fill:#231f20;fill-opacity:1;fill-rule:nonzero;stroke:none"
         id="path20" /><path
         d="m 978.25,434.574 -108.695,60.102 0,194.879 c -1.684,14.324 -9.059,30.207 -21.528,40.019 -13.304,10.469 -31.215,12.918 -47.504,10.356 0,0 -50.863,-5.485 -67.925,-8.735 -17.063,-3.25 -36.567,-11.375 -43.879,-22.75 -6.602,-10.269 -61.555,-89.664 -61.594,-89.734 l -0.207,-0.305 0.059,-0.043 c -1.86,-4.023 -0.36,-8.847 3.582,-11.027 l 56.125,-31.035 -2.028,-3.547 -131.629,-337.297 35.75,0 141.383,247.105 63.375,-75.566 9.75,-171.539 34.129,0 8.125,182.105 -44.652,95.586 169.105,-93.503 c 4.121,-2.282 9.317,-0.79 11.594,3.335 2.281,4.122 0.785,9.313 -3.336,11.594 z m -318.32,176.02 59.668,76.726 30.062,-0.812 -54.512,-95.391 -35.218,19.477 z m 127.918,-69.528 39.816,57.692 5.547,-83.985 -44.602,24.665 -0.761,1.628"
         style="fill:#231f20;fill-opacity:1;fill-rule:nonzero;stroke:none"
         id="path22" /></g></g></svg>